<svg width="100" height="100" viewBox="0 0 100 100" fill="none" xmlns="http://www.w3.org/2000/svg">
<rect width="100" height="100" fill="white"/>
<path d="M13.8647 41.5309V58H8.71997V41.5309H13.8647ZM8.41555 37.2842C8.41555 36.5536 8.67939 35.9549 9.20705 35.4881C9.73471 35.0213 10.4197 34.788 11.2619 34.788C12.1041 34.788 12.7891 35.0213 13.3167 35.4881C13.8444 35.9549 14.1082 36.5536 14.1082 37.2842C14.1082 38.0148 13.8444 38.6135 13.3167 39.0803C12.7891 39.5471 12.1041 39.7804 11.2619 39.7804C10.4197 39.7804 9.73471 39.5471 9.20705 39.0803C8.67939 38.6135 8.41555 38.0148 8.41555 37.2842ZM20.5102 45.0469V58H15.3807V41.5309H20.1905L20.5102 45.0469ZM19.9013 49.2023L18.6989 49.2327C18.6989 47.9744 18.8511 46.8531 19.1555 45.8689C19.4599 44.8744 19.8912 44.0322 20.4493 43.3422C21.0074 42.6521 21.672 42.1296 22.4432 41.7744C23.2246 41.4091 24.0922 41.2264 25.046 41.2264C25.8071 41.2264 26.5022 41.3381 27.1313 41.5613C27.7706 41.7845 28.3186 42.1448 28.7752 42.642C29.242 43.1392 29.5971 43.7988 29.8407 44.6207C30.0943 45.4325 30.2212 46.4371 30.2212 47.6345V58H25.0613V47.6193C25.0613 46.9597 24.9699 46.4574 24.7873 46.1124C24.6046 45.7572 24.3408 45.5137 23.9958 45.3818C23.6508 45.2499 23.2297 45.1839 22.7324 45.1839C22.2048 45.1839 21.7583 45.2854 21.393 45.4883C21.0277 45.6913 20.7334 45.9754 20.5102 46.3407C20.2971 46.6959 20.1398 47.117 20.0383 47.604C19.947 48.0911 19.9013 48.6239 19.9013 49.2023ZM42.4832 35.8382V58H37.1407V35.8382H42.4832ZM49.15 35.8382V39.9631H30.6261V35.8382H49.15ZM45.7801 49.9329V49.6132C45.7801 48.4057 45.9526 47.2946 46.2976 46.2798C46.6426 45.2549 47.15 44.367 47.8197 43.6161C48.4894 42.8652 49.3165 42.2818 50.3007 41.8657C51.285 41.4395 52.4215 41.2264 53.7103 41.2264C55.0091 41.2264 56.1507 41.4395 57.135 41.8657C58.1294 42.2818 58.9615 42.8652 59.6312 43.6161C60.301 44.367 60.8083 45.2549 61.1533 46.2798C61.4983 47.2946 61.6708 48.4057 61.6708 49.6132V49.9329C61.6708 51.1302 61.4983 52.2414 61.1533 53.2663C60.8083 54.281 60.301 55.1689 59.6312 55.9299C58.9615 56.6808 58.1345 57.2643 57.1502 57.6804C56.1659 58.0964 55.0294 58.3044 53.7407 58.3044C52.452 58.3044 51.3104 58.0964 50.316 57.6804C49.3215 57.2643 48.4894 56.6808 47.8197 55.9299C47.15 55.1689 46.6426 54.281 46.2976 53.2663C45.9526 52.2414 45.7801 51.1302 45.7801 49.9329ZM50.9096 49.6132V49.9329C50.9096 50.5519 50.9552 51.1302 51.0466 51.6681C51.1379 52.2059 51.2901 52.6777 51.5032 53.0836C51.7163 53.4794 52.0055 53.7889 52.3708 54.0121C52.7361 54.2353 53.1927 54.347 53.7407 54.347C54.2785 54.347 54.725 54.2353 55.0801 54.0121C55.4454 53.7889 55.7346 53.4794 55.9477 53.0836C56.1608 52.6777 56.313 52.2059 56.4044 51.6681C56.4957 51.1302 56.5414 50.5519 56.5414 49.9329V49.6132C56.5414 49.0145 56.4957 48.4514 56.4044 47.9237C56.313 47.3859 56.1608 46.914 55.9477 46.5081C55.7346 46.0921 55.4454 45.7674 55.0801 45.534C54.7148 45.3006 54.2582 45.1839 53.7103 45.1839C53.1724 45.1839 52.7209 45.3006 52.3556 45.534C52.0004 45.7674 51.7163 46.0921 51.5032 46.5081C51.2901 46.914 51.1379 47.3859 51.0466 47.9237C50.9552 48.4514 50.9096 49.0145 50.9096 49.6132ZM67.4335 45.0469V58H62.304V41.5309H67.1139L67.4335 45.0469ZM66.8247 49.2023L65.6222 49.2327C65.6222 47.9744 65.7744 46.8531 66.0788 45.8689C66.3833 44.8744 66.8145 44.0322 67.3726 43.3422C67.9307 42.6521 68.5954 42.1296 69.3666 41.7744C70.1479 41.4091 71.0155 41.2264 71.9694 41.2264C72.7304 41.2264 73.4255 41.3381 74.0547 41.5613C74.6939 41.7845 75.2419 42.1448 75.6985 42.642C76.1653 43.1392 76.5205 43.7988 76.764 44.6207C77.0177 45.4325 77.1445 46.4371 77.1445 47.6345V58H71.9846V47.6193C71.9846 46.9597 71.8933 46.4574 71.7106 46.1124C71.528 45.7572 71.2641 45.5137 70.9191 45.3818C70.5741 45.2499 70.153 45.1839 69.6558 45.1839C69.1281 45.1839 68.6816 45.2854 68.3163 45.4883C67.951 45.6913 67.6568 45.9754 67.4335 46.3407C67.2204 46.6959 67.0631 47.117 66.9617 47.604C66.8703 48.0911 66.8247 48.6239 66.8247 49.2023ZM86.408 58.3044C85.0686 58.3044 83.8712 58.0964 82.8159 57.6804C81.7605 57.2542 80.8676 56.6707 80.137 55.9299C79.4165 55.1892 78.8635 54.3368 78.4779 53.3728C78.1024 52.4088 77.9147 51.389 77.9147 50.3134V49.735C77.9147 48.5275 78.0821 47.4112 78.417 46.3864C78.7519 45.3513 79.2491 44.4482 79.9087 43.677C80.5682 42.9058 81.3952 42.3071 82.3897 41.8809C83.3841 41.4446 84.5409 41.2264 85.8601 41.2264C87.027 41.2264 88.0722 41.4142 88.9956 41.7896C89.919 42.1651 90.7004 42.7029 91.3396 43.403C91.9891 44.1032 92.4812 44.9505 92.8161 45.945C93.1611 46.9394 93.3336 48.0556 93.3336 49.2936V51.3789H79.8782V48.1672H88.3259V47.7715C88.336 47.2235 88.2396 46.7567 88.0367 46.3711C87.8439 45.9855 87.5598 45.6913 87.1843 45.4883C86.8088 45.2854 86.3522 45.1839 85.8144 45.1839C85.2563 45.1839 84.7946 45.3057 84.4293 45.5492C84.0741 45.7927 83.7951 46.1276 83.5921 46.5538C83.3993 46.9698 83.2624 47.4518 83.1812 47.9998C83.1 48.5477 83.0594 49.1261 83.0594 49.735V50.3134C83.0594 50.9222 83.1406 51.4753 83.3029 51.9725C83.4754 52.4697 83.719 52.8959 84.0336 53.251C84.3583 53.5961 84.7439 53.865 85.1903 54.0578C85.647 54.2506 86.1645 54.347 86.7429 54.347C87.4431 54.347 88.1331 54.215 88.8129 53.9512C89.4928 53.6874 90.0763 53.251 90.5634 52.6422L92.8922 55.4124C92.5573 55.8894 92.0804 56.3511 91.4614 56.7975C90.8526 57.244 90.122 57.6093 89.2696 57.8935C88.4172 58.1674 87.4634 58.3044 86.408 58.3044Z" fill="black"/>
</svg>
